<?xml version="1.0" encoding="utf-8"?><svg viewBox="0 0 64 64" xmlns="http://www.w3.org/2000/svg" xmlns:xlink="http://www.w3.org/1999/xlink"><style>:root>svg{display:none}:root>svg:target{display:block}</style><svg viewBox="0 0 64 64" id="icon-burger-close" xmlns="http://www.w3.org/2000/svg"><path d="m12 8-4 4 16.67 20L8 52l4 4 20-16.67L52 56l4-4-16.67-20L56 12l-4-4-20 16.67L12 8z"/></svg><svg fill="none" viewBox="0 0 24 24" id="icon-mail" xmlns="http://www.w3.org/2000/svg"><path d="M4.8 5h14.4c1 0 1.8.8 1.8 1.8v10.4c0 1-.8 1.8-1.8 1.8H4.8c-1 0-1.8-.8-1.8-1.8V6.8C3 5.8 3.8 5 4.8 5Z" clip-rule="evenodd"/><path d="m20 7-8 6-8-6"/></svg><svg fill="none" viewBox="0 0 24 24" id="icon-map" xmlns="http://www.w3.org/2000/svg"><path d="M20 10.4C20 16 12 21 12 21s-8-5-8-10.6C4 6.3 7.6 3 12 3s8 3.3 8 7.4Z" clip-rule="evenodd"/><path d="M12 14a3 3 0 1 0 0-6 3 3 0 0 0 0 6Z" clip-rule="evenodd"/></svg><svg viewBox="0 0 24 24" id="icon-menu" xmlns="http://www.w3.org/2000/svg"><g data-name="Layer 2"><g data-name="menu-2"><circle cx="4" cy="12" r="1"/><rect width="14" height="2" x="7" y="11" rx=".94" ry=".94"/><rect width="18" height="2" x="3" y="16" rx=".94" ry=".94"/><rect width="18" height="2" x="3" y="6" rx=".94" ry=".94"/></g></g></svg><svg fill="none" viewBox="0 0 24 24" id="icon-mobile-phone" xmlns="http://www.w3.org/2000/svg"><path d="M20 16v2.4a1.6 1.6 0 0 1-1.8 1.6 16 16 0 0 1-11.7-7.3 16 16 0 0 1-2.5-7A1.6 1.6 0 0 1 5.6 4H8c.8 0 1.5.6 1.6 1.4.1.8.3 1.5.6 2.2.2.6 0 1.3-.4 1.7l-1 1c1.2 2 2.8 3.7 4.8 4.9l1-1c.5-.5 1.2-.6 1.8-.4.7.3 1.4.5 2.2.6.8 0 1.4.8 1.4 1.6Z" clip-rule="evenodd"/></svg><svg viewBox="0 0 32 32" id="icon-phone" xmlns="http://www.w3.org/2000/svg"><path d="M22 20c-2 2-2 4-4 4s-4-2-6-4-4-4-4-6 2-2 4-4-4-8-6-8-6 6-6 6c0 4 4.109 12.109 8 16s12 8 16 8c0 0 6-4 6-6s-6-8-8-6z"/></svg></svg>